<?xml version="1.0" standalone="no"?>
<!DOCTYPE svg PUBLIC "-//W3C//DTD SVG 20010904//EN"
 "http://www.w3.org/TR/2001/REC-SVG-20010904/DTD/svg10.dtd">
<svg version="1.0" xmlns="http://www.w3.org/2000/svg"
 width="512.000000pt" height="512.000000pt" viewBox="0 0 512.000000 512.000000"
 preserveAspectRatio="xMidYMid meet">

<g transform="translate(0.000000,512.000000) scale(0.100000,-0.100000)"
fill="#000000" stroke="none">
<path d="M523 4625 c-167 -45 -302 -180 -345 -344 -15 -61 -17 -164 -17 -1241
-1 -1294 -4 -1230 60 -1351 62 -116 199 -215 330 -239 36 -7 356 -9 901 -8
837 3 847 3 874 24 53 39 69 71 69 134 0 63 -16 95 -69 134 -27 21 -38 21
-886 26 -848 5 -859 5 -886 26 -15 11 -37 33 -48 48 -21 27 -21 35 -24 1038
l-2 1010 47 -28 c932 -546 1528 -888 1573 -902 72 -22 208 -22 280 0 34 11
364 197 835 472 l780 455 5 -369 c5 -353 6 -370 26 -396 39 -53 71 -69 134
-69 63 0 95 16 134 69 21 27 21 40 24 553 1 331 -1 546 -8 581 -24 132 -123
269 -239 331 -122 65 -8 61 -1836 60 -1395 0 -1668 -3 -1712 -14z m3391 -328
c38 -21 65 -51 56 -61 -3 -2 -381 -224 -840 -492 -827 -484 -836 -488 -890
-488 -55 0 -62 4 -892 489 -461 270 -838 495 -838 501 0 14 27 39 65 58 27 14
202 16 1665 16 l1635 0 39 -23z"/>
<path d="M3660 2705 c-293 -47 -576 -227 -747 -476 -117 -171 -193 -417 -193
-629 0 -212 76 -458 193 -629 174 -253 455 -431 757 -476 176 -27 241 -17 293
44 53 63 48 152 -12 212 -39 40 -40 40 -203 58 -237 26 -447 156 -578 358 -89
136 -125 259 -125 433 0 174 36 297 124 432 243 371 737 478 1104 238 194
-126 324 -329 357 -556 6 -44 10 -137 8 -206 -3 -137 -10 -156 -72 -202 -39
-29 -133 -29 -172 0 -64 47 -68 61 -75 237 -5 130 -10 172 -26 214 -63 160
-180 267 -340 308 -341 89 -667 -238 -578 -580 55 -209 251 -365 460 -365 58
0 163 23 205 45 l30 15 67 -68 c73 -74 138 -113 230 -137 256 -67 528 107 584
372 15 76 6 393 -15 484 -79 346 -290 615 -601 769 -218 108 -439 142 -675
105z m243 -959 c103 -43 128 -177 48 -257 -65 -65 -157 -65 -222 0 -124 123
13 325 174 257z"/>
</g>
</svg>
