<?xml version="1.0" standalone="no"?>
<!DOCTYPE svg PUBLIC "-//W3C//DTD SVG 20010904//EN"
 "http://www.w3.org/TR/2001/REC-SVG-20010904/DTD/svg10.dtd">
<svg version="1.0" xmlns="http://www.w3.org/2000/svg"
 width="512.000000pt" height="512.000000pt" viewBox="0 0 512.000000 512.000000"
 preserveAspectRatio="xMidYMid meet">

<g transform="translate(0.000000,512.000000) scale(0.100000,-0.100000)"
fill="#000000" stroke="none">
<path d="M1015 4109 c-171 -16 -320 -86 -444 -210 -67 -67 -102 -119 -147
-212 -63 -133 -81 -309 -48 -460 21 -96 92 -240 153 -308 l50 -56 -92 -60
c-259 -170 -435 -453 -477 -768 -7 -52 -10 -163 -8 -262 3 -191 7 -202 79
-251 44 -31 129 -28 176 6 53 37 63 74 63 224 0 245 25 377 97 508 95 175 243
299 438 367 74 25 92 27 230 28 143 0 154 -2 238 -32 194 -69 346 -200 437
-376 l34 -64 -60 -74 c-80 -98 -98 -125 -139 -208 -74 -150 -101 -249 -116
-432 -15 -182 -9 -336 17 -379 63 -108 200 -111 278 -6 19 25 22 46 27 249 6
192 10 232 29 292 82 256 264 436 520 516 108 34 311 34 420 0 252 -77 440
-265 520 -516 19 -60 23 -101 29 -292 5 -203 8 -224 27 -249 78 -105 215 -102
278 6 26 43 32 197 17 379 -15 183 -42 282 -116 432 -41 83 -59 110 -138 207
l-60 73 16 39 c44 113 186 268 308 337 41 23 110 54 154 70 74 25 92 27 230
27 138 0 156 -2 230 -27 195 -68 343 -192 438 -367 72 -131 97 -263 97 -508 0
-150 10 -187 63 -224 47 -34 132 -37 176 -6 72 49 76 60 79 251 4 191 -8 309
-44 435 -27 92 -83 212 -141 299 -62 95 -199 229 -300 296 l-92 60 50 56 c61
68 132 212 153 308 53 243 -20 497 -195 672 -142 141 -315 212 -518 212 -405
-1 -721 -319 -721 -726 0 -177 61 -345 170 -467 l50 -56 -48 -28 c-59 -34
-101 -65 -176 -129 -33 -27 -57 -42 -53 -33 23 62 31 118 31 223 1 98 -4 134
-23 195 -76 245 -242 419 -476 497 -72 25 -94 27 -225 27 -131 0 -153 -2 -225
-27 -234 -78 -400 -252 -476 -497 -30 -96 -33 -283 -6 -372 9 -31 17 -60 17
-64 0 -5 -24 14 -52 42 -63 60 -116 101 -180 138 l-48 28 50 56 c109 122 170
290 170 467 0 435 -361 763 -795 724z m170 -333 c202 -54 332 -252 298 -453
-22 -128 -104 -239 -220 -298 -55 -28 -64 -30 -178 -30 -112 0 -124 2 -175 28
-202 105 -283 343 -184 544 28 59 107 143 157 170 96 50 208 65 302 39z m2956
-2 c81 -24 122 -48 177 -103 195 -195 141 -519 -108 -648 -51 -26 -63 -28
-175 -28 -114 0 -123 2 -178 30 -246 126 -301 450 -108 643 107 107 254 147
392 106z m-1499 -485 c189 -40 318 -200 318 -394 0 -157 -80 -287 -222 -362
-50 -26 -61 -28 -178 -28 -117 0 -128 2 -178 28 -142 75 -222 205 -222 362 0
84 19 151 61 216 91 143 257 213 421 178z"/>
</g>
</svg>
