<?xml version="1.0" standalone="no"?>
<!DOCTYPE svg PUBLIC "-//W3C//DTD SVG 20010904//EN"
 "http://www.w3.org/TR/2001/REC-SVG-20010904/DTD/svg10.dtd">
<svg version="1.0" xmlns="http://www.w3.org/2000/svg"
 width="512.000000pt" height="512.000000pt" viewBox="0 0 512.000000 512.000000"
 preserveAspectRatio="xMidYMid meet">

<g transform="translate(0.000000,512.000000) scale(0.100000,-0.100000)"
fill="#000000" stroke="none">
<path d="M686 4594 c-32 -10 -64 -31 -96 -63 -83 -83 -80 -52 -80 -861 0 -788
-1 -776 67 -851 20 -22 55 -50 77 -62 l41 -22 755 0 c755 0 755 0 795 22 47
25 95 74 121 123 18 33 19 73 19 790 l0 755 -22 41 c-31 59 -93 110 -154 128
-77 23 -1448 23 -1523 0z m1510 -187 l24 -28 0 -710 0 -711 -29 -29 -29 -29
-711 0 -710 0 -28 24 -28 24 -2 709 c-3 759 -4 744 47 770 20 10 178 12 733
10 l709 -2 24 -28z"/>
<path d="M2902 4591 c-60 -21 -113 -67 -145 -126 -22 -40 -22 -40 -22 -795 0
-717 1 -757 19 -790 26 -49 74 -98 121 -123 40 -22 40 -22 795 -22 l755 0 41
22 c23 12 58 41 78 65 67 78 66 63 66 848 0 809 3 778 -80 860 -82 83 -51 80
-864 80 -663 -1 -715 -2 -764 -19z m1510 -179 l23 -23 0 -720 0 -721 -28 -24
-28 -24 -710 0 -711 0 -29 29 -29 29 0 709 c0 769 -2 740 54 763 11 5 339 8
728 7 l707 -2 23 -23z"/>
<path d="M700 2381 c-48 -15 -87 -40 -123 -80 -68 -75 -67 -63 -67 -851 0
-809 -3 -778 80 -860 82 -83 51 -80 860 -80 785 0 770 -1 848 66 24 20 53 55
65 78 l22 41 0 755 c0 717 -1 757 -19 790 -26 49 -74 98 -121 123 -40 22 -42
22 -780 24 -407 1 -751 -2 -765 -6z m1491 -190 l29 -29 0 -711 0 -710 -24 -28
-24 -28 -721 0 -720 0 -23 23 -23 23 0 720 0 721 28 24 28 24 710 0 711 0 29
-29z"/>
<path d="M2920 2381 c-69 -22 -130 -73 -166 -141 -18 -33 -19 -73 -19 -790 l0
-755 22 -41 c30 -57 97 -111 157 -129 77 -23 1438 -22 1515 1 73 21 144 92
165 165 23 77 24 1438 1 1515 -18 60 -72 127 -129 157 l-41 22 -740 2 c-407 1
-751 -2 -765 -6z m1487 -185 l28 -24 0 -721 0 -720 -23 -23 -23 -23 -720 0
-721 0 -24 28 -24 28 0 710 0 711 29 29 29 29 711 0 710 0 28 -24z"/>
</g>
</svg>
