<?xml version="1.0" standalone="no"?>
<!DOCTYPE svg PUBLIC "-//W3C//DTD SVG 20010904//EN"
 "http://www.w3.org/TR/2001/REC-SVG-20010904/DTD/svg10.dtd">
<svg version="1.0" xmlns="http://www.w3.org/2000/svg"
 width="512.000000pt" height="512.000000pt" viewBox="0 0 512.000000 512.000000"
 preserveAspectRatio="xMidYMid meet">

<g transform="translate(0.000000,512.000000) scale(0.100000,-0.100000)"
fill="#000000" stroke="none">
<path d="M1181 4914 c-180 -48 -339 -208 -386 -389 -19 -75 -19 -204 0 -278
31 -118 68 -172 233 -340 l156 -157 -551 -553 c-589 -590 -587 -588 -618 -719
-27 -116 -16 -215 38 -328 28 -60 95 -130 831 -868 481 -482 824 -819 860
-842 149 -101 352 -107 513 -15 31 18 352 331 923 900 l875 873 241 107 c285
125 314 149 280 227 -8 20 -451 469 -1133 1151 l-1118 1117 -44 0 c-44 0 -47
-3 -183 -137 l-138 -137 -157 156 c-168 165 -222 202 -340 233 -72 19 -211 18
-282 -1z m294 -214 c34 -16 96 -69 198 -169 l148 -145 -248 -248 -248 -249
-146 148 c-169 172 -190 207 -197 324 -6 95 14 166 67 235 36 48 118 106 176
124 55 17 195 6 250 -20z m1824 -1154 l1015 -1015 -75 -33 c-41 -19 -105 -47
-142 -63 l-68 -29 -627 627 c-437 437 -636 630 -657 635 -39 11 -90 -3 -110
-30 -8 -13 -15 -43 -15 -67 l0 -45 620 -621 620 -620 -838 -837 c-927 -927
-882 -888 -1012 -888 -130 0 -89 -36 -971 848 -767 767 -797 799 -819 857 -29
79 -24 162 14 232 19 34 189 211 559 581 l532 532 143 -143 143 -143 -27 -80
c-22 -68 -26 -90 -21 -156 10 -150 90 -269 225 -336 72 -35 81 -37 171 -36 75
0 109 5 154 23 81 32 168 114 209 199 31 62 33 73 33 172 0 97 -2 110 -32 172
-40 85 -106 151 -191 191 -62 30 -75 32 -172 32 -88 0 -113 -4 -155 -23 l-49
-23 -146 146 -145 145 405 405 c223 223 407 405 410 405 3 0 461 -456 1019
-1014z m-1256 -250 c39 -17 92 -71 106 -109 17 -45 13 -124 -9 -166 -74 -145
-281 -146 -357 -2 -53 100 -13 219 92 274 37 20 125 22 168 3z"/>
<path d="M2329 3961 c-39 -40 -40 -89 -1 -132 48 -54 130 -39 158 28 12 27 13
42 4 69 -23 70 -108 88 -161 35z"/>
<path d="M4369 1965 c-29 -16 -155 -159 -274 -310 -181 -231 -334 -499 -371
-647 -22 -91 -15 -235 16 -328 64 -193 196 -342 377 -426 112 -53 188 -67 328
-61 199 8 322 63 466 206 72 72 94 101 132 181 49 101 77 210 77 303 0 218
-194 556 -564 984 -95 110 -131 129 -187 98z m91 -292 c188 -214 385 -519 439
-681 61 -181 -31 -406 -213 -524 -82 -53 -169 -78 -270 -78 -141 0 -251 45
-353 143 -106 101 -161 239 -151 377 11 143 135 361 395 688 53 67 100 122
104 122 4 0 26 -21 49 -47z"/>
</g>
</svg>
