<?xml version="1.0" standalone="no"?>
<!DOCTYPE svg PUBLIC "-//W3C//DTD SVG 20010904//EN"
 "http://www.w3.org/TR/2001/REC-SVG-20010904/DTD/svg10.dtd">
<svg version="1.0" xmlns="http://www.w3.org/2000/svg"
 width="512.000000pt" height="512.000000pt" viewBox="0 0 512.000000 512.000000"
 preserveAspectRatio="xMidYMid meet">

<g transform="translate(0.000000,512.000000) scale(0.100000,-0.100000)"
fill="#000000" stroke="none">
<path d="M2095 5113 c-128 -19 -301 -85 -402 -154 -69 -47 -188 -164 -239
-236 -56 -78 -116 -205 -145 -308 -21 -75 -23 -103 -27 -457 l-3 -378 -89 0
c-125 0 -186 -24 -265 -104 -38 -38 -67 -78 -77 -106 -10 -25 -203 -695 -429
-1490 -397 -1388 -413 -1448 -413 -1530 0 -71 4 -94 26 -142 34 -72 103 -142
176 -176 l57 -27 2295 0 2295 0 67 33 c76 37 125 88 166 172 23 47 27 67 26
140 0 81 -18 148 -412 1530 -227 795 -420 1465 -429 1490 -11 28 -40 68 -78
106 -79 80 -140 104 -265 104 l-89 0 -4 378 c-4 424 -8 450 -87 619 -49 106
-88 162 -174 252 -123 127 -271 215 -443 263 -74 21 -100 22 -543 24 -256 1
-478 0 -495 -3z m1013 -191 c264 -80 459 -279 538 -547 15 -51 18 -116 21
-427 l5 -368 -86 0 -86 0 0 328 c0 370 -6 417 -67 541 -52 105 -159 212 -264
264 -128 63 -164 67 -609 67 -445 0 -481 -4 -609 -67 -105 -52 -212 -159 -264
-264 -61 -124 -67 -171 -67 -541 l0 -328 -86 0 -86 0 5 368 c4 399 6 414 67
549 107 236 335 408 595 446 17 3 230 4 475 3 428 -2 448 -3 518 -24z m-108
-328 c110 -26 197 -88 261 -187 63 -97 70 -152 67 -512 l-3 -310 -765 0 -765
0 -3 310 c-2 253 0 323 13 382 34 154 157 280 310 317 90 22 794 22 885 0z
m1017 -1195 c35 -13 70 -46 89 -82 8 -15 202 -683 430 -1485 454 -1591 433
-1503 380 -1583 -14 -21 -44 -46 -68 -58 l-44 -21 -2244 0 -2244 0 -44 21
c-62 31 -96 86 -96 158 0 44 87 364 407 1486 224 787 413 1443 419 1459 17 41
57 87 93 102 24 11 294 13 1462 14 991 0 1440 -3 1460 -11z"/>
<path d="M1649 2701 l-29 -29 0 -786 c0 -495 4 -794 10 -811 13 -33 69 -59
102 -46 52 20 53 24 58 332 l5 289 242 -273 c337 -379 305 -347 347 -347 49 0
86 36 86 83 0 34 -89 140 -581 688 l-68 76 311 349 c170 192 319 363 329 379
44 69 -28 149 -106 119 -9 -4 -138 -144 -288 -312 l-272 -306 -5 293 -5 293
-24 19 c-35 28 -77 24 -112 -10z"/>
<path d="M2960 2715 c-119 -34 -212 -111 -268 -223 l-37 -76 0 -540 0 -541 32
-65 c18 -36 55 -88 85 -118 239 -240 647 -118 717 216 17 83 14 355 -4 399
-37 88 -89 113 -235 113 -116 0 -148 -10 -168 -54 -17 -33 -9 -69 20 -96 19
-17 35 -20 125 -20 l103 0 0 -142 c0 -162 -7 -197 -53 -265 -63 -94 -203 -133
-309 -85 -49 21 -113 88 -134 138 -11 27 -14 125 -14 522 l0 488 26 52 c81
162 294 189 417 53 36 -40 67 -119 67 -173 0 -39 40 -78 80 -78 44 0 90 47 90
92 0 50 -27 145 -57 200 -37 67 -121 143 -198 180 -81 38 -198 47 -285 23z"/>
<path d="M1566 829 c-26 -21 -35 -65 -20 -104 18 -46 4 -45 1014 -45 704 0
957 3 973 12 34 17 46 39 47 80 0 28 -6 41 -26 57 -27 21 -31 21 -994 21 -963
0 -967 0 -994 -21z"/>
</g>
</svg>
