<?xml version="1.0" standalone="no"?>
<!DOCTYPE svg PUBLIC "-//W3C//DTD SVG 20010904//EN"
 "http://www.w3.org/TR/2001/REC-SVG-20010904/DTD/svg10.dtd">
<svg version="1.0" xmlns="http://www.w3.org/2000/svg"
 width="512.000000pt" height="512.000000pt" viewBox="0 0 512.000000 512.000000"
 preserveAspectRatio="xMidYMid meet">

<g transform="translate(0.000000,512.000000) scale(0.100000,-0.100000)"
fill="#000000" stroke="none">
<path d="M2238 5095 c-848 -116 -1572 -626 -1952 -1375 -193 -379 -276 -730
-276 -1160 0 -428 85 -785 274 -1157 390 -766 1145 -1289 1998 -1382 122 -14
434 -14 553 -1 1191 132 2134 1075 2264 2262 14 125 14 431 0 556 -63 576
-324 1118 -738 1531 -403 403 -911 650 -1488 726 -141 19 -498 18 -635 0z
m627 -181 c491 -58 974 -291 1341 -647 505 -488 761 -1141 723 -1844 -65
-1196 -1030 -2163 -2229 -2232 -669 -38 -1302 196 -1786 662 -390 374 -641
871 -709 1402 -22 170 -22 440 0 610 97 753 565 1431 1235 1788 445 237 907
322 1425 261z"/>
<path d="M2439 4046 c-242 -67 -396 -323 -334 -559 23 -89 54 -145 118 -214
141 -151 356 -190 543 -98 151 74 264 249 264 411 0 214 -147 405 -353 460
-64 17 -176 17 -238 0z m250 -197 c143 -72 200 -243 128 -386 -106 -209 -408
-209 -514 0 -72 142 -17 311 126 384 88 46 171 46 260 2z"/>
<path d="M2409 2967 c-157 -54 -278 -193 -309 -356 -13 -72 -13 -1100 0 -1172
33 -172 171 -319 345 -365 64 -18 166 -17 232 0 172 46 310 192 343 365 13 72
13 1100 0 1172 -23 121 -116 257 -218 316 -112 66 -270 82 -393 40z m293 -190
c51 -30 88 -70 121 -131 22 -41 22 -46 25 -595 3 -615 3 -618 -61 -702 -19
-24 -59 -58 -88 -74 -48 -27 -63 -30 -139 -30 -76 0 -91 3 -139 30 -29 16 -69
49 -87 74 -63 82 -64 88 -64 670 0 289 3 543 6 564 9 50 60 133 105 169 57 46
103 59 195 55 66 -3 89 -8 126 -30z"/>
</g>
</svg>
