<?xml version="1.0" standalone="no"?>
<!DOCTYPE svg PUBLIC "-//W3C//DTD SVG 20010904//EN"
 "http://www.w3.org/TR/2001/REC-SVG-20010904/DTD/svg10.dtd">
<svg version="1.0" xmlns="http://www.w3.org/2000/svg"
 width="512.000000pt" height="512.000000pt" viewBox="0 0 512.000000 512.000000"
 preserveAspectRatio="xMidYMid meet">

<g transform="translate(0.000000,512.000000) scale(0.100000,-0.100000)"
fill="#000000" stroke="none">
<path d="M3350 4687 c-585 -322 -564 -309 -580 -346 -15 -38 -8 -1006 9 -1096
18 -97 50 -214 82 -297 16 -43 29 -79 29 -82 0 -2 -208 -6 -462 -8 -509 -5
-518 -6 -645 -70 -103 -51 -168 -121 -419 -450 -130 -172 -238 -314 -239 -315
0 -1 -183 -52 -405 -113 -235 -64 -431 -123 -466 -140 -76 -37 -169 -133 -207
-213 -41 -87 -50 -163 -45 -390 5 -214 11 -247 65 -342 33 -61 122 -145 185
-177 68 -35 158 -58 224 -58 l52 0 17 -49 c49 -149 199 -295 358 -351 87 -31
249 -38 337 -15 163 42 315 164 382 305 20 41 39 83 42 93 5 16 55 17 866 17
811 0 861 -1 867 -17 47 -142 163 -279 288 -345 142 -74 306 -90 453 -43 172
54 325 198 377 356 l17 49 81 0 c233 0 405 116 482 326 15 40 19 90 23 278 5
305 -11 382 -108 504 -54 69 -118 108 -350 212 -113 50 -212 99 -221 108 -9
10 -40 54 -67 98 l-51 82 82 58 c45 31 132 107 192 168 221 222 360 483 426
802 22 103 23 138 27 599 l3 490 -23 35 c-19 29 -110 80 -563 322 -451 240
-547 287 -580 287 -33 0 -122 -45 -535 -272z m1009 -222 l450 -240 1 -416 c0
-464 -6 -525 -65 -706 -105 -318 -317 -574 -616 -746 -59 -34 -228 -107 -247
-107 -8 0 -57 20 -108 44 -408 193 -679 546 -760 987 -15 79 -17 163 -18 518
l-1 423 440 243 c242 134 447 243 457 242 9 -1 219 -110 467 -242z m-1278
-1912 c117 -151 296 -308 459 -403 37 -22 124 -65 194 -96 147 -65 154 -65
283 -9 44 19 86 35 91 35 6 0 42 -51 81 -113 39 -63 81 -123 94 -134 12 -11
129 -69 259 -128 248 -112 279 -132 321 -210 21 -37 22 -54 22 -255 0 -241 -5
-268 -64 -333 -51 -57 -100 -77 -193 -77 -77 0 -78 0 -83 28 -50 234 -232 419
-460 467 -140 29 -276 8 -406 -62 -138 -74 -258 -233 -290 -380 l-11 -53 -847
0 -848 0 -13 58 c-26 118 -106 246 -201 319 -193 148 -423 172 -638 66 -145
-72 -271 -231 -306 -385 -11 -52 -12 -53 -51 -56 -57 -5 -109 14 -156 56 -72
65 -78 88 -78 322 0 177 3 210 19 245 19 44 78 100 120 117 14 5 212 61 440
123 228 63 426 122 439 132 14 10 140 169 281 353 175 229 271 346 305 371 88
67 92 67 668 68 l516 1 53 -67z m-1907 -1458 c96 -16 200 -98 245 -195 37 -79
41 -193 10 -275 -31 -82 -121 -173 -202 -203 -185 -70 -395 26 -463 209 -24
66 -22 181 6 252 40 106 153 197 267 217 48 8 62 7 137 -5z m2923 -17 c29 -10
74 -39 100 -63 188 -168 149 -467 -75 -577 -89 -44 -197 -51 -284 -18 -102 38
-188 135 -218 243 -18 66 -9 173 21 233 83 173 273 249 456 182z"/>
<path d="M4310 3798 c-19 -13 -147 -116 -285 -228 -137 -111 -255 -207 -262
-212 -7 -6 -44 30 -113 112 -109 128 -137 150 -196 150 -54 0 -104 -53 -104
-110 0 -26 8 -53 20 -70 48 -67 283 -337 308 -352 34 -23 90 -23 122 -1 59 41
653 528 670 551 13 16 20 40 20 68 0 93 -102 145 -180 92z"/>
</g>
</svg>
