<?xml version="1.0" standalone="no"?>
<!DOCTYPE svg PUBLIC "-//W3C//DTD SVG 20010904//EN"
 "http://www.w3.org/TR/2001/REC-SVG-20010904/DTD/svg10.dtd">
<svg version="1.0" xmlns="http://www.w3.org/2000/svg"
 width="512.000000pt" height="512.000000pt" viewBox="0 0 512.000000 512.000000"
 preserveAspectRatio="xMidYMid meet">

<g transform="translate(0.000000,512.000000) scale(0.100000,-0.100000)"
fill="#000000" stroke="none">
<path d="M980 5109 c-160 -31 -299 -173 -330 -339 -14 -73 -14 -4347 0 -4420
32 -170 170 -308 339 -340 74 -14 3069 -14 3141 0 170 32 308 170 340 339 14
74 14 4348 0 4422 -32 169 -170 307 -340 339 -66 13 -3085 12 -3150 -1z m3121
-210 c74 -16 142 -84 158 -158 16 -74 16 -4288 0 -4362 -16 -74 -84 -142 -158
-158 -74 -16 -3008 -16 -3082 0 -74 16 -142 84 -158 158 -16 74 -16 4288 0
4362 15 69 85 143 150 157 66 15 3022 15 3090 1z"/>
<path d="M2396 4469 c-483 -67 -895 -404 -1046 -857 -50 -152 -64 -242 -64
-412 0 -171 14 -260 65 -415 121 -362 433 -673 797 -795 152 -50 242 -64 412
-64 170 0 260 14 412 64 364 122 676 433 797 795 51 155 65 244 65 415 0 111
-5 179 -17 240 -57 271 -178 492 -371 678 -182 175 -391 286 -641 337 -96 20
-314 28 -409 14z m236 -247 c112 -107 210 -443 236 -809 l8 -103 -316 0 -316
0 8 103 c25 356 116 678 226 799 61 68 92 70 154 10z m-422 -26 c0 -2 -18 -48
-39 -102 -68 -173 -120 -429 -137 -676 l-7 -108 -258 0 -259 0 0 29 c0 64 51
229 105 336 103 207 260 365 467 470 100 50 128 62 128 51z m842 -58 c196
-102 352 -262 453 -463 54 -107 105 -272 105 -336 l0 -29 -259 0 -258 0 -7
108 c-17 247 -69 503 -137 676 -21 54 -39 100 -39 103 0 9 48 -11 142 -59z
m-1018 -1155 c17 -248 69 -504 137 -677 22 -54 37 -101 34 -104 -3 -3 -56 20
-118 51 -211 106 -368 263 -472 472 -54 107 -105 272 -105 336 l0 29 259 0
258 0 7 -107z m834 5 c-26 -369 -123 -701 -238 -813 -53 -52 -87 -52 -140 0
-115 112 -212 444 -238 813 l-8 102 316 0 316 0 -8 -102z m742 73 c0 -64 -51
-229 -105 -336 -104 -209 -261 -366 -472 -472 -62 -31 -115 -54 -118 -51 -3 3
12 50 34 104 68 173 120 429 137 677 l7 107 258 0 259 0 0 -29z"/>
<path d="M1321 1464 c-38 -32 -49 -80 -27 -123 34 -65 -46 -61 1266 -61 1312
0 1232 -4 1266 61 22 43 11 91 -27 123 l-31 26 -1208 0 -1208 0 -31 -26z"/>
<path d="M1741 819 c-42 -42 -43 -95 -2 -141 l29 -33 792 0 792 0 29 33 c41
46 40 99 -2 141 l-31 31 -788 0 -788 0 -31 -31z"/>
</g>
</svg>
